PathFileType	4	(X/Y/Z)	C:\Users\dbl\Desktop\20210112\20210112\bx_n_5_501.trc
DataRate	CameraRate	NumFrames	NumMarkers	Units	OrigDataRate	OrigDataStartFrame	OrigNumFrames
50.00	50.00	       8	43	mm	50.00	1	       517
Frame#	Time	Top.Head			R.Acromium			L.Acromium			Sternum			R.ASIS			L.ASIS			V.Sacral			R.Thigh.Upper			R.Thigh.Front			R.Thigh.Rear			R.Knee.Lat			R.Knee.Med			R.Shank.Upper			R.Shank.Front			R.Shank.Rear			R.Ankle.Lat			R.Midfoot.Lat			R.Toe.Lat			R.Toe.Tip			R.Toe.Med			R.Ankle.Med			R.Midfoot.Sup			R.Heel			L.Thigh.Upper			L.Thigh.Front			L.Thigh.Rear			L.Knee.Lat			L.Knee.Med			L.Shank.Upper			L.Shank.Front			L.Shank.Rear			L.Ankle.Lat			L.Midfoot.Lat			L.Toe.Lat			L.Toe.Tip			L.Toe.Med			L.Ankle.Med			L.Midfoot.Sup			L.Heel			origin1 front left			origin2 front right			origin 3 back right			origin 4 back leftt			
		X1	Y1	Z1	X2	Y2	Z2	X3	Y3	Z3	X4	Y4	Z4	X5	Y5	Z5	X6	Y6	Z6	X7	Y7	Z7	X8	Y8	Z8	X9	Y9	Z9	X10	Y10	Z10	X11	Y11	Z11	X12	Y12	Z12	X13	Y13	Z13	X14	Y14	Z14	X15	Y15	Z15	X16	Y16	Z16	X17	Y17	Z17	X18	Y18	Z18	X19	Y19	Z19	X20	Y20	Z20	X21	Y21	Z21	X22	Y22	Z22	X23	Y23	Z23	X24	Y24	Z24	X25	Y25	Z25	X26	Y26	Z26	X27	Y27	Z27	X28	Y28	Z28	X29	Y29	Z29	X30	Y30	Z30	X31	Y31	Z31	X32	Y32	Z32	X33	Y33	Z33	X34	Y34	Z34	X35	Y35	Z35	X36	Y36	Z36	X37	Y37	Z37	X38	Y38	Z38	X39	Y39	Z39	X40	Y40	Z40	X41	Y41	Z41	X42	Y42	Z42	X43	Y43	Z43	

1	0.000	-671.79205	122.10929	1849.11230	-678.77716	-68.25909	1535.99670	-719.68634	291.54068	1527.39270	-591.06689	112.10809	1356.72803	-580.08026	1.06820	1055.11768	-591.74316	249.48132	1065.51306	-784.42566	98.47067	1052.66858	-643.69592	-66.96532	870.83008	-571.03021	0.91553	802.57727	-666.72748	-58.23935	756.62097	-694.63593	-31.34440	615.20447	-685.58801	78.51001	572.04126	-705.33441	-29.49291	568.95154	-658.61328	20.30613	517.74268	-750.39355	-42.65387	489.65793	-757.46759	-17.98896	208.20313	-648.73041	-65.55271	163.36310	-606.34009	-71.53247	159.24976	-547.35297	-26.34856	164.08612	-598.82520	28.25327	166.61316	-718.30023	72.71228	215.45126	-674.14716	54.96411	157.32707	-793.05096	40.77515	175.88123	-673.73499	289.46704	871.60883	-577.43390	228.40324	792.21991	-683.49640	273.73090	742.98444	-715.90094	253.81720	642.76208	-680.69415	146.92268	576.80524	-719.28735	249.47008	575.96362	-666.29614	208.46423	533.97467	-761.33667	259.23737	502.96616	-767.52094	227.13966	205.76920	-660.42242	297.57083	158.30324	-623.88513	305.89059	159.34091	-555.75757	256.08795	164.43889	-591.87122	217.57790	173.87048	-712.34485	153.38777	216.33492	-675.31519	171.09966	157.99986	-795.93561	178.24176	184.47926	-528.12360	304.36343	146.55630	-517.32672	-72.98653	143.58786	-875.99792	-78.69180	141.55168	-882.53021	296.19693	144.72672	
2	0.020	-672.16895	122.24100	1849.11865	-678.84393	-68.24755	1536.02637	-719.69202	291.56131	1527.33704	-591.21411	111.96021	1356.65808	-580.12762	1.09759	1055.16248	-591.68781	249.58099	1065.57410	-784.37128	98.48183	1052.68091	-643.80554	-67.10021	870.87134	-570.99030	0.82003	802.54871	-666.68579	-58.26968	756.60345	-694.61011	-31.41231	615.15088	-685.59778	78.51357	572.04352	-705.34827	-29.35215	568.88898	-658.53522	20.34063	517.76355	-750.31494	-42.69615	489.78992	-757.46265	-17.80156	208.18782	-648.63165	-65.56551	163.40590	-606.22577	-71.37650	159.29230	-547.34570	-26.31370	164.09026	-598.89026	28.25354	166.59248	-718.23322	72.69569	215.47076	-674.24524	55.02241	157.25078	-793.04614	40.79621	175.90149	-673.61078	289.60889	871.75159	-577.37744	228.41628	792.26605	-683.44086	273.64093	742.84241	-715.90308	253.73116	642.69586	-680.70050	146.90794	576.79596	-719.27155	249.43553	575.92194	-666.27338	208.46330	533.98993	-761.29889	259.26224	503.01773	-767.50922	227.11716	205.77087	-660.39673	297.58475	158.27049	-623.89526	305.93854	159.28580	-555.73492	256.09079	164.46121	-591.82678	217.57053	173.90369	-712.24323	153.35902	216.28836	-675.32477	171.16827	157.99156	-795.90930	178.31877	184.47693	-528.08398	304.43375	146.67279	-517.21814	-72.97391	143.62134	-875.97430	-78.66795	141.51337	-882.49292	296.21838	144.77820	
3	0.040	-672.51807	122.35039	1849.11963	-678.92188	-68.25018	1536.05042	-719.71545	291.57410	1527.29077	-591.34906	111.83826	1356.59753	-580.16730	1.11702	1055.19263	-591.64044	249.64777	1065.62109	-784.33484	98.48779	1052.69043	-643.87830	-67.18633	870.88879	-570.96039	0.76574	802.54163	-666.63110	-58.29158	756.58508	-694.57861	-31.46771	615.14117	-685.59729	78.51191	572.04089	-705.33417	-29.22292	568.82385	-658.43817	20.37507	517.80585	-750.25641	-42.71962	489.86859	-757.46808	-17.69654	208.17368	-648.57440	-65.56815	163.43156	-606.14697	-71.27768	159.32774	-547.33435	-26.28601	164.10158	-598.93677	28.24904	166.58771	-718.20422	72.69816	215.46738	-674.29980	55.06782	157.18440	-793.04181	40.80526	175.89856	-673.49615	289.72900	871.88495	-577.29095	228.39395	792.31580	-683.36768	273.56561	742.72491	-715.88184	253.67433	642.65796	-680.70160	146.89569	576.78241	-719.21637	249.41344	575.90363	-666.23499	208.45370	534.00348	-761.25250	259.27359	503.04922	-767.50659	227.10474	205.77185	-660.38837	297.60333	158.24547	-623.88934	305.96625	159.24208	-555.70752	256.07751	164.46445	-591.80444	217.58345	173.92789	-712.16663	153.35547	216.25853	-675.34186	171.22574	157.96132	-795.87463	178.37941	184.46782	-528.04956	304.49902	146.74170	-517.15393	-72.95886	143.62465	-875.97034	-78.66411	141.50682	-882.47882	296.24728	144.81335	
4	0.060	-672.81543	122.43448	1849.10022	-679.01312	-68.26496	1536.07312	-719.74921	291.58792	1527.25452	-591.46320	111.74538	1356.54565	-580.18945	1.12218	1055.20459	-591.59790	249.67174	1065.64600	-784.31653	98.48384	1052.69104	-643.90930	-67.22343	870.89948	-570.94000	0.75974	802.55743	-666.56940	-58.30629	756.56482	-694.54602	-31.50357	615.15930	-685.57184	78.49887	572.02881	-705.28137	-29.12309	568.76526	-658.32397	20.40083	517.87921	-750.21967	-42.71940	489.87552	-757.47809	-17.67228	208.15469	-648.57465	-65.56432	163.45219	-606.11768	-71.25286	159.34438	-547.32599	-26.26830	164.11510	-598.97693	28.27351	166.58664	-718.20483	72.71242	215.44815	-674.31653	55.09263	157.13029	-793.03412	40.79973	175.87344	-673.40503	289.78961	871.97327	-577.17743	228.33759	792.36163	-683.27954	273.52979	742.67413	-715.82684	253.64668	642.66400	-680.69031	146.89513	576.76636	-719.11725	249.42703	575.92834	-666.18689	208.42897	534.00177	-761.18866	259.27417	503.05759	-767.51373	227.10648	205.76971	-660.39764	297.62357	158.23509	-623.86841	305.97726	159.20493	-555.68677	256.04736	164.44821	-591.81287	217.62364	173.95367	-712.13953	153.37257	216.24329	-675.36896	171.26869	157.90190	-795.84088	178.41917	184.45703	-528.02094	304.56284	146.77533	-517.13831	-72.94561	143.60449	-875.98047	-78.67837	141.52205	-882.47668	296.27216	144.82855	
5	0.080	-673.04486	122.50198	1849.05579	-679.10760	-68.27605	1536.09766	-719.78510	291.61914	1527.22363	-591.55054	111.67633	1356.50391	-580.18762	1.11366	1055.20276	-591.55695	249.66022	1065.63892	-784.31519	98.47527	1052.68335	-643.90497	-67.22734	870.92810	-570.91943	0.77944	802.58258	-666.52045	-58.31779	756.54608	-694.52106	-31.52011	615.17230	-685.50977	78.47208	572.00775	-705.20435	-29.07523	568.73248	-658.20532	20.40505	517.96796	-750.19403	-42.70583	489.83884	-757.48065	-17.68141	208.13673	-648.61627	-65.56561	163.48402	-606.13226	-71.28090	159.33438	-547.32721	-26.25713	164.12444	-599.01801	28.34236	166.56584	-718.19940	72.71449	215.44205	-674.31396	55.08969	157.10141	-793.02283	40.78714	175.84982	-673.32782	289.77441	871.98511	-577.06573	228.27760	792.39001	-683.19183	273.54968	742.70752	-715.74060	253.63280	642.70673	-680.66516	146.90927	576.75244	-719.01312	249.48291	575.99048	-666.15625	208.38559	533.96210	-761.10651	259.27432	503.04919	-767.52460	227.11943	205.76460	-660.41553	297.64670	158.23494	-623.85419	305.99072	159.17334	-555.68134	256.01160	164.42587	-591.85028	217.67587	173.99083	-712.18036	153.38489	216.23584	-675.38940	171.28122	157.85252	-795.82581	178.43347	184.45085	-528.00183	304.63058	146.80428	-517.15210	-72.94312	143.59218	-875.98865	-78.69884	141.53169	-882.46619	296.28052	144.83107	
6	0.100	-673.20673	122.56018	1849.00525	-679.19104	-68.26911	1536.11975	-719.83545	291.67322	1527.19299	-591.61072	111.63287	1356.47900	-580.16663	1.09632	1055.19263	-591.52533	249.63022	1065.60474	-784.32788	98.47050	1052.67017	-643.87042	-67.21362	870.96460	-570.89600	0.79829	802.60272	-666.49994	-58.32127	756.53259	-694.49524	-31.52997	615.18768	-685.42004	78.44038	571.98895	-705.13385	-29.08163	568.73035	-658.09369	20.37784	518.03479	-750.17493	-42.69872	489.81229	-757.48102	-17.70729	208.14120	-648.66443	-65.57639	163.51926	-606.17334	-71.32393	159.30388	-547.33270	-26.24675	164.13235	-599.03711	28.40937	166.52347	-718.17444	72.69328	215.46213	-674.29865	55.06760	157.10641	-793.01697	40.78055	175.84296	-673.23920	289.71484	871.93420	-576.98199	228.23730	792.39526	-683.11987	273.60828	742.78687	-715.63348	253.62404	642.75275	-680.63599	146.92319	576.74268	-718.94629	249.54778	576.05243	-666.16650	208.32629	533.87817	-761.01611	259.27783	503.02856	-767.53577	227.13602	205.75969	-660.43427	297.67261	158.23416	-623.86163	306.01318	159.15887	-555.68573	255.98701	164.40881	-591.90063	217.70897	174.02786	-712.27130	153.38396	216.23944	-675.38708	171.25317	157.85220	-795.83264	178.41545	184.45390	-528.00336	304.69626	146.82471	-517.18677	-72.94630	143.60179	-875.98932	-78.71681	141.52800	-882.44794	296.27075	144.82494	
7	0.120	-673.32074	122.62013	1848.97278	-679.25763	-68.24454	1536.13684	-719.91058	291.74042	1527.15759	-591.64941	111.61906	1356.47339	-580.14050	1.07964	1055.17993	-591.51019	249.60277	1065.56958	-784.33374	98.46947	1052.64661	-643.82556	-67.21976	870.97729	-570.87585	0.80192	802.61041	-666.50580	-58.31151	756.52582	-694.45551	-31.54676	615.22852	-685.33374	78.41887	571.98590	-705.08447	-29.11074	568.73590	-658.00598	20.32426	518.05304	-750.16913	-42.71288	489.82645	-757.48956	-17.75532	208.17430	-648.68225	-65.58804	163.53822	-606.21057	-71.34550	159.27356	-547.33563	-26.23376	164.14389	-599.01569	28.42574	166.48369	-718.14423	72.66278	215.48943	-674.28760	55.05196	157.12975	-793.02588	40.79088	175.84439	-673.14136	289.65512	871.86243	-576.92377	228.21237	792.38654	-683.06958	273.66074	742.84137	-715.52386	253.61900	642.76929	-680.61151	146.91920	576.73523	-718.91833	249.58186	576.08392	-666.21112	208.26329	533.78204	-760.92926	259.28470	503.00320	-767.54736	227.15042	205.75919	-660.44373	297.68289	158.22702	-623.87408	306.02551	159.16539	-555.69366	255.98555	164.39897	-591.93610	217.70171	174.04666	-712.35187	153.38248	216.25067	-675.37421	171.21576	157.87720	-795.84772	178.37445	184.47029	-528.02332	304.74319	146.82634	-517.24231	-72.93349	143.61623	-875.98761	-78.72437	141.52292	-882.43256	296.24438	144.80849	
8	0.140	-673.41748	122.69722	1848.96729	-679.31415	-68.21561	1536.15076	-720.00488	291.80618	1527.11621	-591.68286	111.63249	1356.47815	-580.11493	1.06860	1055.17065	-591.50476	249.58780	1065.54895	-784.30896	98.47177	1052.61475	-643.79163	-67.27691	870.94965	-570.86273	0.78928	802.60425	-666.51862	-58.29863	756.52954	-694.41339	-31.56705	615.28247	-685.28259	78.41490	571.99878	-705.04407	-29.13074	568.72949	-657.96393	20.27188	518.02789	-750.17993	-42.74237	489.86295	-757.49921	-17.80646	208.21825	-648.65082	-65.58681	163.52919	-606.21423	-71.33051	159.26556	-547.33777	-26.22583	164.15288	-598.96893	28.39715	166.47470	-718.12274	72.64290	215.50255	-674.30066	55.04960	157.16400	-793.04590	40.81641	175.84584	-673.06348	289.61288	871.79688	-576.86810	228.18936	792.37891	-683.03021	273.66302	742.81354	-715.43365	253.61705	642.75452	-680.58923	146.90057	576.72571	-718.90277	249.57469	576.08380	-666.25751	208.21220	533.71729	-760.85669	259.29971	502.99191	-767.55542	227.15773	205.76717	-660.43103	297.66037	158.21066	-623.86530	306.00818	159.18016	-555.70618	256.00656	164.39606	-591.94006	217.66769	174.04202	-712.37695	153.38083	216.25589	-675.37469	171.21405	157.87633	-795.85565	178.33530	184.48903	-528.03870	304.75275	146.82217	-517.30176	-72.90382	143.61760	-875.98785	-78.72011	141.52534	-882.42303	296.20328	144.78224	
